<svg xmlns="http://www.w3.org/2000/svg" viewBox="0 0 32 32" id="client"><path fill="#cbaad0" d="M25.5 28.23c3.645-2.836 6-7.253 6-12.229 0-8.56-6.94-15.5-15.5-15.5S.5 7.44.5 16.001c0 4.976 2.355 9.393 6 12.229"></path><path fill="#eadded" d="M18.071 23.518v-2.926H13.95v2.926"></path><path fill="#eadded" d="M18.483 14.625v-.824h-4.944v.824l-1.113 1.387-.002-.007v1.532a3.587 3.587 0 0 0 7.174 0V16.01l-1.115-1.385z"></path><path fill="#b386bc" d="M19.565 23.395l2.798 1.678a2.37 2.37 0 0 1 1.15 2.031V31.5h-15v-4.396c0-.832.436-1.603 1.15-2.031l2.797-1.678"></path><path fill="#9868ac" d="M12.453 23.403l1.578 1.974 1.974-1.974-2.487-1.184zM19.558 23.403l-1.579 1.974-1.974-1.974 2.487-1.184zM18.881 11.164l-3.886-.648a1.615 1.615 0 0 0-1.881 1.593v.044c-.848 0-1.481.782-1.304 1.612l.615 2.247 1.113-1.387v-.824h4.944v.824l1.117 1.387.632-2.927a1.647 1.647 0 0 0-1.35-1.921z"></path><path fill="#8e5ba5" d="M14.038 25.868l-.027-.001a.5.5 0 0 1-.363-.187l-1.578-1.974a.501.501 0 0 1 .019-.647l1.065-1.184a.5.5 0 0 1 .587-.116l2.487 1.184a.5.5 0 0 1 .138.804l-1.975 1.974a.498.498 0 0 1-.353.147zm-.923-2.454l.965 1.205 1.078-1.077-1.511-.72-.532.592z"></path><path fill="#8e5ba5" d="M17.986 25.868a.505.505 0 0 1-.354-.146l-1.974-1.974a.501.501 0 0 1 .138-.804l2.486-1.184a.5.5 0 0 1 .587.116l1.065 1.184a.502.502 0 0 1 .019.647l-1.578 1.974a.502.502 0 0 1-.363.187h-.026zm-1.119-2.326l1.077 1.077.965-1.205-.532-.591-1.51.719zM16.003 21.632a4.091 4.091 0 0 1-4.087-4.087v-1.993h1v1.993c0 1.702 1.385 3.087 3.087 3.087s3.087-1.385 3.087-3.087v-1.993h1v1.993a4.091 4.091 0 0 1-4.087 4.087z"></path><path fill="#8e5ba5" d="M13.443 20.6h1v1.622h-1zM17.563 20.6h1v1.622h-1zM19.592 16.52a.502.502 0 0 1-.39-.187l-1.116-1.386a.502.502 0 0 1-.11-.313v-.324h-3.944v.324a.5.5 0 0 1-.11.313l-1.113 1.386a.488.488 0 0 1-.491.176.5.5 0 0 1-.381-.357l-.615-2.246a1.84 1.84 0 0 1 .362-1.564c.251-.31.589-.525.966-.622a2.1 2.1 0 0 1 .706-1.215 2.117 2.117 0 0 1 1.715-.473l3.887.647c.572.096 1.07.409 1.403.883a2.13 2.13 0 0 1 .357 1.62l-.637 2.943a.5.5 0 0 1-.489.395zm-4.871-5.518c-.262 0-.517.093-.72.265a1.111 1.111 0 0 0-.395.851c0 .276-.224.544-.5.544a.831.831 0 0 0-.814 1.008l.35 1.274.39-.485v-.649a.5.5 0 0 1 .5-.5h4.944a.5.5 0 0 1 .5.5v.647l.349.434.412-1.903a1.142 1.142 0 0 0-.194-.851 1.142 1.142 0 0 0-.75-.472l-3.887-.647a1.166 1.166 0 0 0-.185-.016zM8.495 31.999a.5.5 0 0 1-.5-.5v-4.387c0-1.001.533-1.943 1.392-2.46l2.799-1.678a.5.5 0 0 1 .514.858L9.901 25.51a1.88 1.88 0 0 0-.906 1.603V31.5a.5.5 0 0 1-.5.499zM23.505 31.999a.5.5 0 0 1-.5-.5v-4.387c0-.652-.348-1.267-.907-1.603l-2.797-1.678a.5.5 0 1 1 .514-.858l2.798 1.678a2.887 2.887 0 0 1 1.393 2.46v4.387a.502.502 0 0 1-.501.501z"></path><path fill="#8e5ba5" d="M11.495 31.999a.5.5 0 0 1-.5-.5v-2.312a1.87 1.87 0 0 0-.489-1.261l-.493-.54a.499.499 0 1 1 .738-.674l.493.54c.484.53.751 1.218.751 1.935v2.312a.5.5 0 0 1-.5.5zM20.505 31.999a.5.5 0 0 1-.5-.5v-2.312c0-.717.267-1.404.751-1.935l.493-.54a.499.499 0 1 1 .738.674l-.493.54a1.87 1.87 0 0 0-.489 1.261v2.312a.5.5 0 0 1-.5.5zM15.995 31.999a.5.5 0 0 1-.5-.5v-8.122a.5.5 0 0 1 1 0v8.122a.5.5 0 0 1-.5.5z"></path><path fill="#8e5ba5" d="M5.164 24.008a.498.498 0 0 1-.276-.083C1.781 21.867 0 18.979 0 16.001c0-6.065 7.178-11 16-11s16 4.935 16 11c0 2.972-1.774 5.855-4.869 7.911a.499.499 0 1 1-.552-.832C29.388 21.212 31 18.632 31 16.001c0-5.514-6.729-10-15-10s-15 4.486-15 10c0 2.637 1.618 5.221 4.44 7.09a.502.502 0 0 1-.276.917z"></path><path fill="#8e5ba5" d="M9.501 20.582a.378.378 0 0 1-.067-.005C3.526 19.783 0 18.072 0 16.001s3.526-3.782 9.434-4.576c.267-.05.525.154.562.429a.5.5 0 0 1-.429.562C3.681 13.207 1 14.829 1 16.001s2.681 2.794 8.566 3.586a.5.5 0 0 1-.065.995zM22.499 20.582a.5.5 0 0 1-.065-.996C28.319 18.795 31 17.173 31 16.001s-2.681-2.794-8.566-3.586a.5.5 0 0 1-.429-.562.491.491 0 0 1 .562-.429C28.474 12.219 32 13.93 32 16.001s-3.526 3.782-9.434 4.576a.378.378 0 0 1-.067.005z"></path><path fill="#8e5ba5" d="M25 24.454a.498.498 0 0 1-.462-.688C25.494 21.412 26 18.727 26 16.001c0-8.271-4.486-15-10-15s-10 6.729-10 15c0 2.726.506 5.411 1.463 7.765a.5.5 0 1 1-.925.377C5.531 21.67 5 18.854 5 16.001c0-8.822 4.935-16 11-16s11 7.178 11 16c0 2.854-.531 5.669-1.537 8.142a.5.5 0 0 1-.463.311z"></path><path fill="#8e5ba5" d="M20.08 10.001a.5.5 0 0 1-.494-.434C18.794 3.682 17.172 1.001 16 1.001s-2.794 2.681-3.586 8.566c-.036.273-.296.478-.562.429a.5.5 0 0 1-.429-.562C12.218 3.527 13.929.001 16 .001s3.782 3.526 4.576 9.434a.5.5 0 0 1-.496.566z"></path><path fill="#8e5ba5" d="M25.5 28.73a.5.5 0 0 1-.307-.894C28.884 24.964 31 20.65 31 16.001c0-8.271-6.729-15-15-15s-15 6.729-15 15c0 4.649 2.116 8.963 5.807 11.835a.5.5 0 1 1-.613.789C2.257 25.563 0 20.961 0 16.001c0-8.822 7.178-16 16-16s16 7.178 16 16c0 4.96-2.257 9.562-6.193 12.624a.498.498 0 0 1-.307.105z"></path></svg>